%TF.GenerationSoftware,KiCad,Pcbnew,(5.1.10)-1*%
%TF.CreationDate,2022-06-09T20:54:53-04:00*%
%TF.ProjectId,ATtiny85 Motor Circuit,41547469-6e79-4383-9520-4d6f746f7220,rev?*%
%TF.SameCoordinates,Original*%
%TF.FileFunction,Copper,L1,Top*%
%TF.FilePolarity,Positive*%
%FSLAX46Y46*%
G04 Gerber Fmt 4.6, Leading zero omitted, Abs format (unit mm)*
G04 Created by KiCad (PCBNEW (5.1.10)-1) date 2022-06-09 20:54:53*
%MOMM*%
%LPD*%
G01*
G04 APERTURE LIST*
%TA.AperFunction,WasherPad*%
%ADD10C,2.300000*%
%TD*%
%TA.AperFunction,ComponentPad*%
%ADD11O,4.020000X2.410000*%
%TD*%
%TA.AperFunction,ComponentPad*%
%ADD12R,4.020000X2.410000*%
%TD*%
%TA.AperFunction,ComponentPad*%
%ADD13O,1.905000X2.000000*%
%TD*%
%TA.AperFunction,ComponentPad*%
%ADD14R,1.905000X2.000000*%
%TD*%
%TA.AperFunction,ComponentPad*%
%ADD15O,2.200000X2.200000*%
%TD*%
%TA.AperFunction,ComponentPad*%
%ADD16R,2.200000X2.200000*%
%TD*%
%TA.AperFunction,ComponentPad*%
%ADD17C,3.000000*%
%TD*%
%TA.AperFunction,ComponentPad*%
%ADD18R,3.000000X3.000000*%
%TD*%
%TA.AperFunction,ComponentPad*%
%ADD19C,1.600000*%
%TD*%
%TA.AperFunction,ComponentPad*%
%ADD20R,1.600000X1.600000*%
%TD*%
%TA.AperFunction,ComponentPad*%
%ADD21C,2.000000*%
%TD*%
%TA.AperFunction,ComponentPad*%
%ADD22O,2.400000X1.600000*%
%TD*%
%TA.AperFunction,ComponentPad*%
%ADD23R,2.400000X1.600000*%
%TD*%
%TA.AperFunction,ComponentPad*%
%ADD24O,1.600000X1.600000*%
%TD*%
%TA.AperFunction,ComponentPad*%
%ADD25C,1.800000*%
%TD*%
%TA.AperFunction,ComponentPad*%
%ADD26R,1.800000X1.800000*%
%TD*%
%TA.AperFunction,ComponentPad*%
%ADD27O,1.500000X1.050000*%
%TD*%
%TA.AperFunction,ComponentPad*%
%ADD28R,1.500000X1.050000*%
%TD*%
%TA.AperFunction,Conductor*%
%ADD29C,0.600000*%
%TD*%
G04 APERTURE END LIST*
D10*
%TO.P,BT1,*%
%TO.N,*%
X120810000Y-164990000D03*
X120810000Y-138020000D03*
X143160000Y-151510000D03*
D11*
%TO.P,BT1,2*%
%TO.N,GND*%
X125550000Y-125730000D03*
D12*
%TO.P,BT1,1*%
%TO.N,Net-(BT1-Pad1)*%
X138430000Y-125730000D03*
%TD*%
D13*
%TO.P,U3,3*%
%TO.N,VCC*%
X119380000Y-45720000D03*
%TO.P,U3,2*%
%TO.N,GND*%
X116840000Y-45720000D03*
D14*
%TO.P,U3,1*%
%TO.N,Net-(BT1-Pad1)*%
X114300000Y-45720000D03*
%TD*%
D15*
%TO.P,D1,2*%
%TO.N,Net-(BT1-Pad1)*%
X130810000Y-69850000D03*
D16*
%TO.P,D1,1*%
%TO.N,Net-(C1-Pad2)*%
X130810000Y-59690000D03*
%TD*%
D17*
%TO.P,M1,2*%
%TO.N,Net-(C1-Pad2)*%
X147955000Y-64770000D03*
D18*
%TO.P,M1,1*%
%TO.N,Net-(BT1-Pad1)*%
X147955000Y-69850000D03*
%TD*%
D19*
%TO.P,C3,2*%
%TO.N,GND*%
X114395000Y-53340000D03*
D20*
%TO.P,C3,1*%
%TO.N,VCC*%
X112395000Y-53340000D03*
%TD*%
D19*
%TO.P,C2,2*%
%TO.N,GND*%
X121380000Y-53340000D03*
D20*
%TO.P,C2,1*%
%TO.N,Net-(BT1-Pad1)*%
X119380000Y-53340000D03*
%TD*%
D21*
%TO.P,RV1,3*%
%TO.N,VCC*%
X149225000Y-102395000D03*
%TO.P,RV1,2*%
%TO.N,Net-(RV1-Pad2)*%
X149225000Y-107395000D03*
%TO.P,RV1,1*%
%TO.N,GND*%
X149225000Y-112395000D03*
%TD*%
D22*
%TO.P,U1,8*%
%TO.N,VCC*%
X137795000Y-80010000D03*
%TO.P,U1,4*%
%TO.N,GND*%
X130175000Y-87630000D03*
%TO.P,U1,7*%
%TO.N,Net-(U1-Pad7)*%
X137795000Y-82550000D03*
%TO.P,U1,3*%
%TO.N,Net-(U1-Pad3)*%
X130175000Y-85090000D03*
%TO.P,U1,6*%
%TO.N,Net-(Q1-Pad2)*%
X137795000Y-85090000D03*
%TO.P,U1,2*%
%TO.N,Net-(RV1-Pad2)*%
X130175000Y-82550000D03*
%TO.P,U1,5*%
%TO.N,Net-(U1-Pad5)*%
X137795000Y-87630000D03*
D23*
%TO.P,U1,1*%
%TO.N,Net-(U1-Pad1)*%
X130175000Y-80010000D03*
%TD*%
D22*
%TO.P,U2,16*%
%TO.N,VCC*%
X137795000Y-96520000D03*
%TO.P,U2,8*%
%TO.N,GND*%
X130175000Y-114300000D03*
%TO.P,U2,15*%
%TO.N,Net-(D2-Pad2)*%
X137795000Y-99060000D03*
%TO.P,U2,7*%
%TO.N,Net-(D9-Pad2)*%
X130175000Y-111760000D03*
%TO.P,U2,14*%
%TO.N,Net-(U1-Pad7)*%
X137795000Y-101600000D03*
%TO.P,U2,6*%
%TO.N,Net-(D8-Pad2)*%
X130175000Y-109220000D03*
%TO.P,U2,13*%
%TO.N,GND*%
X137795000Y-104140000D03*
%TO.P,U2,5*%
%TO.N,Net-(D7-Pad2)*%
X130175000Y-106680000D03*
%TO.P,U2,12*%
%TO.N,Net-(U1-Pad3)*%
X137795000Y-106680000D03*
%TO.P,U2,4*%
%TO.N,Net-(D6-Pad2)*%
X130175000Y-104140000D03*
%TO.P,U2,11*%
%TO.N,Net-(U1-Pad5)*%
X137795000Y-109220000D03*
%TO.P,U2,3*%
%TO.N,Net-(D5-Pad2)*%
X130175000Y-101600000D03*
%TO.P,U2,10*%
%TO.N,VCC*%
X137795000Y-111760000D03*
%TO.P,U2,2*%
%TO.N,Net-(D4-Pad2)*%
X130175000Y-99060000D03*
%TO.P,U2,9*%
%TO.N,Net-(U2-Pad9)*%
X137795000Y-114300000D03*
D23*
%TO.P,U2,1*%
%TO.N,Net-(D3-Pad2)*%
X130175000Y-96520000D03*
%TD*%
D24*
%TO.P,RN1,9*%
%TO.N,Net-(D9-Pad1)*%
X113030000Y-100965000D03*
%TO.P,RN1,8*%
%TO.N,Net-(D8-Pad1)*%
X113030000Y-98425000D03*
%TO.P,RN1,7*%
%TO.N,Net-(D7-Pad1)*%
X113030000Y-95885000D03*
%TO.P,RN1,6*%
%TO.N,Net-(D6-Pad1)*%
X113030000Y-93345000D03*
%TO.P,RN1,5*%
%TO.N,Net-(D5-Pad1)*%
X113030000Y-90805000D03*
%TO.P,RN1,4*%
%TO.N,Net-(D4-Pad1)*%
X113030000Y-88265000D03*
%TO.P,RN1,3*%
%TO.N,Net-(D3-Pad1)*%
X113030000Y-85725000D03*
%TO.P,RN1,2*%
%TO.N,Net-(D2-Pad1)*%
X113030000Y-83185000D03*
D20*
%TO.P,RN1,1*%
%TO.N,GND*%
X113030000Y-80645000D03*
%TD*%
D25*
%TO.P,D9,2*%
%TO.N,Net-(D9-Pad2)*%
X121285000Y-111760000D03*
D26*
%TO.P,D9,1*%
%TO.N,Net-(D9-Pad1)*%
X121285000Y-114300000D03*
%TD*%
D25*
%TO.P,D8,2*%
%TO.N,Net-(D8-Pad2)*%
X121285000Y-104775000D03*
D26*
%TO.P,D8,1*%
%TO.N,Net-(D8-Pad1)*%
X121285000Y-107315000D03*
%TD*%
D25*
%TO.P,D7,2*%
%TO.N,Net-(D7-Pad2)*%
X121285000Y-97790000D03*
D26*
%TO.P,D7,1*%
%TO.N,Net-(D7-Pad1)*%
X121285000Y-100330000D03*
%TD*%
D25*
%TO.P,D6,2*%
%TO.N,Net-(D6-Pad2)*%
X121285000Y-90805000D03*
D26*
%TO.P,D6,1*%
%TO.N,Net-(D6-Pad1)*%
X121285000Y-93345000D03*
%TD*%
D25*
%TO.P,D5,2*%
%TO.N,Net-(D5-Pad2)*%
X121285000Y-83820000D03*
D26*
%TO.P,D5,1*%
%TO.N,Net-(D5-Pad1)*%
X121285000Y-86360000D03*
%TD*%
D25*
%TO.P,D4,2*%
%TO.N,Net-(D4-Pad2)*%
X121285000Y-76835000D03*
D26*
%TO.P,D4,1*%
%TO.N,Net-(D4-Pad1)*%
X121285000Y-79375000D03*
%TD*%
D25*
%TO.P,D3,2*%
%TO.N,Net-(D3-Pad2)*%
X121285000Y-69850000D03*
D26*
%TO.P,D3,1*%
%TO.N,Net-(D3-Pad1)*%
X121285000Y-72390000D03*
%TD*%
D25*
%TO.P,D2,2*%
%TO.N,Net-(D2-Pad2)*%
X121285000Y-62865000D03*
D26*
%TO.P,D2,1*%
%TO.N,Net-(D2-Pad1)*%
X121285000Y-65405000D03*
%TD*%
D19*
%TO.P,C1,2*%
%TO.N,Net-(C1-Pad2)*%
X137795000Y-64850000D03*
%TO.P,C1,1*%
%TO.N,Net-(BT1-Pad1)*%
X137795000Y-69850000D03*
%TD*%
D27*
%TO.P,Q1,2*%
%TO.N,Net-(Q1-Pad2)*%
X147955000Y-85090000D03*
%TO.P,Q1,3*%
%TO.N,Net-(C1-Pad2)*%
X147955000Y-83820000D03*
D28*
%TO.P,Q1,1*%
%TO.N,GND*%
X147955000Y-86360000D03*
%TD*%
D29*
%TO.N,GND*%
X147955000Y-86360000D02*
X147955000Y-87385300D01*
X147955000Y-87385300D02*
X150758500Y-90188800D01*
X150758500Y-90188800D02*
X150758500Y-110861500D01*
X150758500Y-110861500D02*
X149225000Y-112395000D01*
X119884600Y-75396900D02*
X119884600Y-58922200D01*
X119884600Y-58922200D02*
X121380000Y-57426800D01*
X121380000Y-57426800D02*
X121380000Y-53340000D01*
X119884600Y-75396900D02*
X119578400Y-75396900D01*
X119578400Y-75396900D02*
X114330300Y-80645000D01*
X130175000Y-87630000D02*
X128474600Y-85929600D01*
X128474600Y-85929600D02*
X128474600Y-82033600D01*
X128474600Y-82033600D02*
X121837900Y-75396900D01*
X121837900Y-75396900D02*
X119884600Y-75396900D01*
X113030000Y-80645000D02*
X114330300Y-80645000D01*
X128060300Y-125730000D02*
X130175000Y-123615300D01*
X130175000Y-123615300D02*
X130175000Y-114300000D01*
X149225000Y-112395000D02*
X140970000Y-104140000D01*
X140970000Y-104140000D02*
X137795000Y-104140000D01*
X125550000Y-125730000D02*
X128060300Y-125730000D01*
%TO.N,Net-(U1-Pad5)*%
X137795000Y-87630000D02*
X136094700Y-87630000D01*
X137795000Y-109220000D02*
X136094700Y-109220000D01*
X136094700Y-109220000D02*
X135294400Y-108419700D01*
X135294400Y-108419700D02*
X135294400Y-88430300D01*
X135294400Y-88430300D02*
X136094700Y-87630000D01*
%TO.N,Net-(U1-Pad7)*%
X136094700Y-101600000D02*
X136094700Y-95920000D01*
X136094700Y-95920000D02*
X139495300Y-92519400D01*
X139495300Y-92519400D02*
X139495300Y-82550000D01*
X137795000Y-82550000D02*
X139495300Y-82550000D01*
X137795000Y-101600000D02*
X136094700Y-101600000D01*
%TO.N,VCC*%
X140295700Y-95719600D02*
X140295700Y-80810400D01*
X140295700Y-80810400D02*
X139495300Y-80010000D01*
X140295700Y-95719600D02*
X139495300Y-96520000D01*
X149225000Y-102395000D02*
X142549600Y-95719600D01*
X142549600Y-95719600D02*
X140295700Y-95719600D01*
X137795000Y-96520000D02*
X139495300Y-96520000D01*
X137795000Y-80010000D02*
X139495300Y-80010000D01*
X112395000Y-53340000D02*
X112395000Y-52039700D01*
X112395000Y-52039700D02*
X113060300Y-52039700D01*
X113060300Y-52039700D02*
X119380000Y-45720000D01*
%TO.N,Net-(BT1-Pad1)*%
X134494100Y-71553100D02*
X134494100Y-124304400D01*
X134494100Y-124304400D02*
X135919700Y-125730000D01*
X134494100Y-71553100D02*
X136091900Y-71553100D01*
X136091900Y-71553100D02*
X137795000Y-69850000D01*
X132410300Y-69850000D02*
X134113400Y-71553100D01*
X134113400Y-71553100D02*
X134494100Y-71553100D01*
X137795000Y-69850000D02*
X145954700Y-69850000D01*
X147955000Y-69850000D02*
X145954700Y-69850000D01*
X130810000Y-69850000D02*
X132410300Y-69850000D01*
X138430000Y-125730000D02*
X135919700Y-125730000D01*
X130810000Y-69850000D02*
X130810000Y-68249700D01*
X130810000Y-68249700D02*
X129209700Y-66649400D01*
X129209700Y-66649400D02*
X129209700Y-59290700D01*
X129209700Y-59290700D02*
X121935500Y-52016500D01*
X121935500Y-52016500D02*
X120703500Y-52016500D01*
X120703500Y-52016500D02*
X119380000Y-53340000D01*
%TO.N,Net-(D4-Pad2)*%
X121285000Y-76835000D02*
X125742200Y-81292200D01*
X125742200Y-81292200D02*
X125742200Y-85234300D01*
X125742200Y-85234300D02*
X128474700Y-87966800D01*
X128474700Y-87966800D02*
X128474700Y-99060000D01*
X130175000Y-99060000D02*
X128474700Y-99060000D01*
%TO.N,Net-(D5-Pad2)*%
X130175000Y-101600000D02*
X128474700Y-101600000D01*
X121285000Y-83820000D02*
X125843600Y-88378600D01*
X125843600Y-88378600D02*
X125843600Y-98968900D01*
X125843600Y-98968900D02*
X128474700Y-101600000D01*
%TO.N,Net-(D8-Pad2)*%
X130175000Y-109220000D02*
X128474700Y-109220000D01*
X121285000Y-104775000D02*
X124029700Y-104775000D01*
X124029700Y-104775000D02*
X128474700Y-109220000D01*
%TD*%
M02*
