M48
; DRILL file {KiCad (5.1.10)-1} date 06/09/22 20:55:04
; FORMAT={-:-/ absolute / inch / decimal}
; #@! TF.CreationDate,2022-06-09T20:55:04-04:00
; #@! TF.GenerationSoftware,Kicad,Pcbnew,(5.1.10)-1
; #@! TF.FileFunction,Plated,1,2,PTH
FMAT,2
INCH
T1C0.0260
T2C0.0295
T3C0.0315
T4C0.0354
T5C0.0394
T6C0.0433
T7C0.0598
%
G90
G05
T2
X5.825Y-3.3
X5.825Y-3.35
X5.825Y-3.4
T3
X4.425Y-2.1
X4.45Y-3.175
X4.45Y-3.275
X4.45Y-3.375
X4.45Y-3.475
X4.45Y-3.575
X4.45Y-3.675
X4.45Y-3.775
X4.45Y-3.875
X4.45Y-3.975
X4.5037Y-2.1
X4.7Y-2.1
X4.7787Y-2.1
X5.125Y-3.15
X5.125Y-3.25
X5.125Y-3.35
X5.125Y-3.45
X5.125Y-3.8
X5.125Y-3.9
X5.125Y-4.0
X5.125Y-4.1
X5.125Y-4.2
X5.125Y-4.3
X5.125Y-4.4
X5.125Y-4.5
X5.425Y-2.5531
X5.425Y-2.75
X5.425Y-3.15
X5.425Y-3.25
X5.425Y-3.35
X5.425Y-3.45
X5.425Y-3.8
X5.425Y-3.9
X5.425Y-4.0
X5.425Y-4.1
X5.425Y-4.2
X5.425Y-4.3
X5.425Y-4.4
X5.425Y-4.5
T4
X4.775Y-2.475
X4.775Y-2.575
X4.775Y-2.75
X4.775Y-2.85
X4.775Y-3.025
X4.775Y-3.125
X4.775Y-3.3
X4.775Y-3.4
X4.775Y-3.575
X4.775Y-3.675
X4.775Y-3.85
X4.775Y-3.95
X4.775Y-4.125
X4.775Y-4.225
X4.775Y-4.4
X4.775Y-4.5
T5
X5.875Y-4.0313
X5.875Y-4.2281
X5.875Y-4.425
T6
X4.5Y-1.8
X4.6Y-1.8
X4.7Y-1.8
X5.15Y-2.35
X5.15Y-2.75
T7
X5.825Y-2.55
X5.825Y-2.75
T1
G00X4.9746Y-4.95
M15
G01X4.9112Y-4.95
M16
G05
G00X5.4817Y-4.95
M15
G01X5.4183Y-4.95
M16
G05
T0
M30
