%TF.GenerationSoftware,KiCad,Pcbnew,(5.1.10)-1*%
%TF.CreationDate,2022-06-09T20:54:53-04:00*%
%TF.ProjectId,ATtiny85 Motor Circuit,41547469-6e79-4383-9520-4d6f746f7220,rev?*%
%TF.SameCoordinates,Original*%
%TF.FileFunction,Soldermask,Bot*%
%TF.FilePolarity,Negative*%
%FSLAX46Y46*%
G04 Gerber Fmt 4.6, Leading zero omitted, Abs format (unit mm)*
G04 Created by KiCad (PCBNEW (5.1.10)-1) date 2022-06-09 20:54:53*
%MOMM*%
%LPD*%
G01*
G04 APERTURE LIST*
%ADD10C,2.300000*%
%ADD11O,4.020000X2.410000*%
%ADD12R,4.020000X2.410000*%
%ADD13O,1.905000X2.000000*%
%ADD14R,1.905000X2.000000*%
%ADD15O,3.500000X3.500000*%
%ADD16O,2.200000X2.200000*%
%ADD17R,2.200000X2.200000*%
%ADD18C,3.000000*%
%ADD19R,3.000000X3.000000*%
%ADD20C,1.600000*%
%ADD21R,1.600000X1.600000*%
%ADD22C,2.000000*%
%ADD23O,2.400000X1.600000*%
%ADD24R,2.400000X1.600000*%
%ADD25O,1.600000X1.600000*%
%ADD26C,1.800000*%
%ADD27R,1.800000X1.800000*%
%ADD28O,1.500000X1.050000*%
%ADD29R,1.500000X1.050000*%
G04 APERTURE END LIST*
D10*
%TO.C,BT1*%
X120810000Y-164990000D03*
X120810000Y-138020000D03*
X143160000Y-151510000D03*
D11*
X125550000Y-125730000D03*
D12*
X138430000Y-125730000D03*
%TD*%
D13*
%TO.C,U3*%
X119380000Y-45720000D03*
X116840000Y-45720000D03*
D14*
X114300000Y-45720000D03*
D15*
X116840000Y-29060000D03*
%TD*%
D16*
%TO.C,D1*%
X130810000Y-69850000D03*
D17*
X130810000Y-59690000D03*
%TD*%
D18*
%TO.C,M1*%
X147955000Y-64770000D03*
D19*
X147955000Y-69850000D03*
%TD*%
D20*
%TO.C,C3*%
X114395000Y-53340000D03*
D21*
X112395000Y-53340000D03*
%TD*%
D20*
%TO.C,C2*%
X121380000Y-53340000D03*
D21*
X119380000Y-53340000D03*
%TD*%
D22*
%TO.C,RV1*%
X149225000Y-102395000D03*
X149225000Y-107395000D03*
X149225000Y-112395000D03*
%TD*%
D23*
%TO.C,U1*%
X137795000Y-80010000D03*
X130175000Y-87630000D03*
X137795000Y-82550000D03*
X130175000Y-85090000D03*
X137795000Y-85090000D03*
X130175000Y-82550000D03*
X137795000Y-87630000D03*
D24*
X130175000Y-80010000D03*
%TD*%
D23*
%TO.C,U2*%
X137795000Y-96520000D03*
X130175000Y-114300000D03*
X137795000Y-99060000D03*
X130175000Y-111760000D03*
X137795000Y-101600000D03*
X130175000Y-109220000D03*
X137795000Y-104140000D03*
X130175000Y-106680000D03*
X137795000Y-106680000D03*
X130175000Y-104140000D03*
X137795000Y-109220000D03*
X130175000Y-101600000D03*
X137795000Y-111760000D03*
X130175000Y-99060000D03*
X137795000Y-114300000D03*
D24*
X130175000Y-96520000D03*
%TD*%
D25*
%TO.C,RN1*%
X113030000Y-100965000D03*
X113030000Y-98425000D03*
X113030000Y-95885000D03*
X113030000Y-93345000D03*
X113030000Y-90805000D03*
X113030000Y-88265000D03*
X113030000Y-85725000D03*
X113030000Y-83185000D03*
D21*
X113030000Y-80645000D03*
%TD*%
D26*
%TO.C,D9*%
X121285000Y-111760000D03*
D27*
X121285000Y-114300000D03*
%TD*%
D26*
%TO.C,D8*%
X121285000Y-104775000D03*
D27*
X121285000Y-107315000D03*
%TD*%
D26*
%TO.C,D7*%
X121285000Y-97790000D03*
D27*
X121285000Y-100330000D03*
%TD*%
D26*
%TO.C,D6*%
X121285000Y-90805000D03*
D27*
X121285000Y-93345000D03*
%TD*%
D26*
%TO.C,D5*%
X121285000Y-83820000D03*
D27*
X121285000Y-86360000D03*
%TD*%
D26*
%TO.C,D4*%
X121285000Y-76835000D03*
D27*
X121285000Y-79375000D03*
%TD*%
D26*
%TO.C,D3*%
X121285000Y-69850000D03*
D27*
X121285000Y-72390000D03*
%TD*%
D26*
%TO.C,D2*%
X121285000Y-62865000D03*
D27*
X121285000Y-65405000D03*
%TD*%
D20*
%TO.C,C1*%
X137795000Y-64850000D03*
X137795000Y-69850000D03*
%TD*%
D28*
%TO.C,Q1*%
X147955000Y-85090000D03*
X147955000Y-83820000D03*
D29*
X147955000Y-86360000D03*
%TD*%
M02*
