%TF.GenerationSoftware,KiCad,Pcbnew,(5.1.10)-1*%
%TF.CreationDate,2022-06-09T20:54:53-04:00*%
%TF.ProjectId,ATtiny85 Motor Circuit,41547469-6e79-4383-9520-4d6f746f7220,rev?*%
%TF.SameCoordinates,Original*%
%TF.FileFunction,Legend,Top*%
%TF.FilePolarity,Positive*%
%FSLAX46Y46*%
G04 Gerber Fmt 4.6, Leading zero omitted, Abs format (unit mm)*
G04 Created by KiCad (PCBNEW (5.1.10)-1) date 2022-06-09 20:54:53*
%MOMM*%
%LPD*%
G01*
G04 APERTURE LIST*
%ADD10C,0.500000*%
%ADD11C,0.120000*%
%ADD12C,0.150000*%
G04 APERTURE END LIST*
D10*
X130460238Y-44466428D02*
X131293571Y-44466428D01*
X131650714Y-45775952D02*
X130460238Y-45775952D01*
X130460238Y-43275952D01*
X131650714Y-43275952D01*
X133079285Y-45775952D02*
X132841190Y-45656904D01*
X132722142Y-45418809D01*
X132722142Y-43275952D01*
X134984047Y-45656904D02*
X134745952Y-45775952D01*
X134269761Y-45775952D01*
X134031666Y-45656904D01*
X133912619Y-45418809D01*
X133912619Y-44466428D01*
X134031666Y-44228333D01*
X134269761Y-44109285D01*
X134745952Y-44109285D01*
X134984047Y-44228333D01*
X135103095Y-44466428D01*
X135103095Y-44704523D01*
X133912619Y-44942619D01*
X137245952Y-45656904D02*
X137007857Y-45775952D01*
X136531666Y-45775952D01*
X136293571Y-45656904D01*
X136174523Y-45537857D01*
X136055476Y-45299761D01*
X136055476Y-44585476D01*
X136174523Y-44347380D01*
X136293571Y-44228333D01*
X136531666Y-44109285D01*
X137007857Y-44109285D01*
X137245952Y-44228333D01*
X137960238Y-44109285D02*
X138912619Y-44109285D01*
X138317380Y-43275952D02*
X138317380Y-45418809D01*
X138436428Y-45656904D01*
X138674523Y-45775952D01*
X138912619Y-45775952D01*
X139745952Y-45775952D02*
X139745952Y-44109285D01*
X139745952Y-44585476D02*
X139865000Y-44347380D01*
X139984047Y-44228333D01*
X140222142Y-44109285D01*
X140460238Y-44109285D01*
X141650714Y-45775952D02*
X141412619Y-45656904D01*
X141293571Y-45537857D01*
X141174523Y-45299761D01*
X141174523Y-44585476D01*
X141293571Y-44347380D01*
X141412619Y-44228333D01*
X141650714Y-44109285D01*
X142007857Y-44109285D01*
X142245952Y-44228333D01*
X142365000Y-44347380D01*
X142484047Y-44585476D01*
X142484047Y-45299761D01*
X142365000Y-45537857D01*
X142245952Y-45656904D01*
X142007857Y-45775952D01*
X141650714Y-45775952D01*
X143555476Y-44109285D02*
X143555476Y-45775952D01*
X143555476Y-44347380D02*
X143674523Y-44228333D01*
X143912619Y-44109285D01*
X144269761Y-44109285D01*
X144507857Y-44228333D01*
X144626904Y-44466428D01*
X144626904Y-45775952D01*
X145817380Y-45775952D02*
X145817380Y-44109285D01*
X145817380Y-43275952D02*
X145698333Y-43395000D01*
X145817380Y-43514047D01*
X145936428Y-43395000D01*
X145817380Y-43275952D01*
X145817380Y-43514047D01*
X148079285Y-45656904D02*
X147841190Y-45775952D01*
X147365000Y-45775952D01*
X147126904Y-45656904D01*
X147007857Y-45537857D01*
X146888809Y-45299761D01*
X146888809Y-44585476D01*
X147007857Y-44347380D01*
X147126904Y-44228333D01*
X147365000Y-44109285D01*
X147841190Y-44109285D01*
X148079285Y-44228333D01*
X149031666Y-45656904D02*
X149269761Y-45775952D01*
X149745952Y-45775952D01*
X149984047Y-45656904D01*
X150103095Y-45418809D01*
X150103095Y-45299761D01*
X149984047Y-45061666D01*
X149745952Y-44942619D01*
X149388809Y-44942619D01*
X149150714Y-44823571D01*
X149031666Y-44585476D01*
X149031666Y-44466428D01*
X149150714Y-44228333D01*
X149388809Y-44109285D01*
X149745952Y-44109285D01*
X149984047Y-44228333D01*
X130460238Y-50025952D02*
X130460238Y-47525952D01*
X131412619Y-47525952D01*
X131650714Y-47645000D01*
X131769761Y-47764047D01*
X131888809Y-48002142D01*
X131888809Y-48359285D01*
X131769761Y-48597380D01*
X131650714Y-48716428D01*
X131412619Y-48835476D01*
X130460238Y-48835476D01*
X132960238Y-50025952D02*
X132960238Y-48359285D01*
X132960238Y-48835476D02*
X133079285Y-48597380D01*
X133198333Y-48478333D01*
X133436428Y-48359285D01*
X133674523Y-48359285D01*
X134865000Y-50025952D02*
X134626904Y-49906904D01*
X134507857Y-49787857D01*
X134388809Y-49549761D01*
X134388809Y-48835476D01*
X134507857Y-48597380D01*
X134626904Y-48478333D01*
X134865000Y-48359285D01*
X135222142Y-48359285D01*
X135460238Y-48478333D01*
X135579285Y-48597380D01*
X135698333Y-48835476D01*
X135698333Y-49549761D01*
X135579285Y-49787857D01*
X135460238Y-49906904D01*
X135222142Y-50025952D01*
X134865000Y-50025952D01*
X136769761Y-48359285D02*
X136769761Y-50502142D01*
X136650714Y-50740238D01*
X136412619Y-50859285D01*
X136293571Y-50859285D01*
X136769761Y-47525952D02*
X136650714Y-47645000D01*
X136769761Y-47764047D01*
X136888809Y-47645000D01*
X136769761Y-47525952D01*
X136769761Y-47764047D01*
X138912619Y-49906904D02*
X138674523Y-50025952D01*
X138198333Y-50025952D01*
X137960238Y-49906904D01*
X137841190Y-49668809D01*
X137841190Y-48716428D01*
X137960238Y-48478333D01*
X138198333Y-48359285D01*
X138674523Y-48359285D01*
X138912619Y-48478333D01*
X139031666Y-48716428D01*
X139031666Y-48954523D01*
X137841190Y-49192619D01*
X141174523Y-49906904D02*
X140936428Y-50025952D01*
X140460238Y-50025952D01*
X140222142Y-49906904D01*
X140103095Y-49787857D01*
X139984047Y-49549761D01*
X139984047Y-48835476D01*
X140103095Y-48597380D01*
X140222142Y-48478333D01*
X140460238Y-48359285D01*
X140936428Y-48359285D01*
X141174523Y-48478333D01*
X141888809Y-48359285D02*
X142841190Y-48359285D01*
X142245952Y-47525952D02*
X142245952Y-49668809D01*
X142365000Y-49906904D01*
X142603095Y-50025952D01*
X142841190Y-50025952D01*
X146888809Y-50025952D02*
X145460238Y-50025952D01*
X146174523Y-50025952D02*
X146174523Y-47525952D01*
X145936428Y-47883095D01*
X145698333Y-48121190D01*
X145460238Y-48240238D01*
X130222142Y-52609285D02*
X130817380Y-54275952D01*
X131412619Y-52609285D01*
X132245952Y-52014047D02*
X132365000Y-51895000D01*
X132603095Y-51775952D01*
X133198333Y-51775952D01*
X133436428Y-51895000D01*
X133555476Y-52014047D01*
X133674523Y-52252142D01*
X133674523Y-52490238D01*
X133555476Y-52847380D01*
X132126904Y-54275952D01*
X133674523Y-54275952D01*
X134745952Y-54037857D02*
X134865000Y-54156904D01*
X134745952Y-54275952D01*
X134626904Y-54156904D01*
X134745952Y-54037857D01*
X134745952Y-54275952D01*
X137245952Y-54275952D02*
X135817380Y-54275952D01*
X136531666Y-54275952D02*
X136531666Y-51775952D01*
X136293571Y-52133095D01*
X136055476Y-52371190D01*
X135817380Y-52490238D01*
D11*
X125095000Y-40640000D02*
X125095000Y-27940000D01*
X151130000Y-40640000D02*
X125095000Y-40640000D01*
X151130000Y-27940000D02*
X151130000Y-40640000D01*
X125095000Y-27940000D02*
X151130000Y-27940000D01*
%TO.C,BT1*%
X116150000Y-178830000D02*
X147740000Y-178830000D01*
X116150000Y-178830000D02*
X116150000Y-129270000D01*
X116150000Y-129270000D02*
X119050000Y-129270000D01*
X119050000Y-129270000D02*
X119050000Y-123670000D01*
X147740000Y-178830000D02*
X147740000Y-129270000D01*
X147740000Y-129270000D02*
X143640000Y-129270000D01*
X143640000Y-129270000D02*
X143640000Y-123670000D01*
X143640000Y-123670000D02*
X141080000Y-123670000D01*
X135780000Y-123670000D02*
X127430000Y-123670000D01*
X119050000Y-123670000D02*
X123730000Y-123670000D01*
X143980000Y-123330000D02*
X140980000Y-123330000D01*
X143980000Y-123330000D02*
X143980000Y-126330000D01*
%TO.C,U3*%
X111720000Y-42030000D02*
X121960000Y-42030000D01*
X111720000Y-26140000D02*
X121960000Y-26140000D01*
X111720000Y-26140000D02*
X111720000Y-42030000D01*
X121960000Y-26140000D02*
X121960000Y-42030000D01*
X114300000Y-42030000D02*
X114300000Y-44570000D01*
X116840000Y-42030000D02*
X116840000Y-44570000D01*
X119380000Y-42030000D02*
X119380000Y-44570000D01*
%TO.C,D1*%
X132280000Y-62050000D02*
X129340000Y-62050000D01*
X129340000Y-62050000D02*
X129340000Y-67490000D01*
X129340000Y-67490000D02*
X132280000Y-67490000D01*
X132280000Y-67490000D02*
X132280000Y-62050000D01*
X130810000Y-61030000D02*
X130810000Y-62050000D01*
X130810000Y-68510000D02*
X130810000Y-67490000D01*
X132280000Y-62950000D02*
X129340000Y-62950000D01*
X132280000Y-63070000D02*
X129340000Y-63070000D01*
X132280000Y-62830000D02*
X129340000Y-62830000D01*
%TO.C,M1*%
X151765000Y-72390000D02*
X151765000Y-62230000D01*
X144145000Y-72390000D02*
X151765000Y-72390000D01*
X144145000Y-62230000D02*
X144145000Y-72390000D01*
X151765000Y-62230000D02*
X144145000Y-62230000D01*
X150495000Y-62230000D02*
X150495000Y-72390000D01*
%TO.C,C3*%
X110840225Y-51615000D02*
X110840225Y-52115000D01*
X110590225Y-51865000D02*
X111090225Y-51865000D01*
X115996000Y-53056000D02*
X115996000Y-53624000D01*
X115956000Y-52822000D02*
X115956000Y-53858000D01*
X115916000Y-52663000D02*
X115916000Y-54017000D01*
X115876000Y-52535000D02*
X115876000Y-54145000D01*
X115836000Y-52425000D02*
X115836000Y-54255000D01*
X115796000Y-52329000D02*
X115796000Y-54351000D01*
X115756000Y-52242000D02*
X115756000Y-54438000D01*
X115716000Y-52162000D02*
X115716000Y-54518000D01*
X115676000Y-52089000D02*
X115676000Y-54591000D01*
X115636000Y-52021000D02*
X115636000Y-54659000D01*
X115596000Y-51957000D02*
X115596000Y-54723000D01*
X115556000Y-51897000D02*
X115556000Y-54783000D01*
X115516000Y-51840000D02*
X115516000Y-54840000D01*
X115476000Y-51786000D02*
X115476000Y-54894000D01*
X115436000Y-51735000D02*
X115436000Y-54945000D01*
X115396000Y-54380000D02*
X115396000Y-54993000D01*
X115396000Y-51687000D02*
X115396000Y-52300000D01*
X115356000Y-54380000D02*
X115356000Y-55039000D01*
X115356000Y-51641000D02*
X115356000Y-52300000D01*
X115316000Y-54380000D02*
X115316000Y-55083000D01*
X115316000Y-51597000D02*
X115316000Y-52300000D01*
X115276000Y-54380000D02*
X115276000Y-55125000D01*
X115276000Y-51555000D02*
X115276000Y-52300000D01*
X115236000Y-54380000D02*
X115236000Y-55166000D01*
X115236000Y-51514000D02*
X115236000Y-52300000D01*
X115196000Y-54380000D02*
X115196000Y-55204000D01*
X115196000Y-51476000D02*
X115196000Y-52300000D01*
X115156000Y-54380000D02*
X115156000Y-55241000D01*
X115156000Y-51439000D02*
X115156000Y-52300000D01*
X115116000Y-54380000D02*
X115116000Y-55277000D01*
X115116000Y-51403000D02*
X115116000Y-52300000D01*
X115076000Y-54380000D02*
X115076000Y-55311000D01*
X115076000Y-51369000D02*
X115076000Y-52300000D01*
X115036000Y-54380000D02*
X115036000Y-55344000D01*
X115036000Y-51336000D02*
X115036000Y-52300000D01*
X114996000Y-54380000D02*
X114996000Y-55375000D01*
X114996000Y-51305000D02*
X114996000Y-52300000D01*
X114956000Y-54380000D02*
X114956000Y-55405000D01*
X114956000Y-51275000D02*
X114956000Y-52300000D01*
X114916000Y-54380000D02*
X114916000Y-55435000D01*
X114916000Y-51245000D02*
X114916000Y-52300000D01*
X114876000Y-54380000D02*
X114876000Y-55462000D01*
X114876000Y-51218000D02*
X114876000Y-52300000D01*
X114836000Y-54380000D02*
X114836000Y-55489000D01*
X114836000Y-51191000D02*
X114836000Y-52300000D01*
X114796000Y-54380000D02*
X114796000Y-55515000D01*
X114796000Y-51165000D02*
X114796000Y-52300000D01*
X114756000Y-54380000D02*
X114756000Y-55540000D01*
X114756000Y-51140000D02*
X114756000Y-52300000D01*
X114716000Y-54380000D02*
X114716000Y-55564000D01*
X114716000Y-51116000D02*
X114716000Y-52300000D01*
X114676000Y-54380000D02*
X114676000Y-55587000D01*
X114676000Y-51093000D02*
X114676000Y-52300000D01*
X114636000Y-54380000D02*
X114636000Y-55608000D01*
X114636000Y-51072000D02*
X114636000Y-52300000D01*
X114596000Y-54380000D02*
X114596000Y-55630000D01*
X114596000Y-51050000D02*
X114596000Y-52300000D01*
X114556000Y-54380000D02*
X114556000Y-55650000D01*
X114556000Y-51030000D02*
X114556000Y-52300000D01*
X114516000Y-54380000D02*
X114516000Y-55669000D01*
X114516000Y-51011000D02*
X114516000Y-52300000D01*
X114476000Y-54380000D02*
X114476000Y-55688000D01*
X114476000Y-50992000D02*
X114476000Y-52300000D01*
X114436000Y-54380000D02*
X114436000Y-55705000D01*
X114436000Y-50975000D02*
X114436000Y-52300000D01*
X114396000Y-54380000D02*
X114396000Y-55722000D01*
X114396000Y-50958000D02*
X114396000Y-52300000D01*
X114356000Y-54380000D02*
X114356000Y-55738000D01*
X114356000Y-50942000D02*
X114356000Y-52300000D01*
X114316000Y-54380000D02*
X114316000Y-55754000D01*
X114316000Y-50926000D02*
X114316000Y-52300000D01*
X114276000Y-54380000D02*
X114276000Y-55768000D01*
X114276000Y-50912000D02*
X114276000Y-52300000D01*
X114236000Y-54380000D02*
X114236000Y-55782000D01*
X114236000Y-50898000D02*
X114236000Y-52300000D01*
X114196000Y-54380000D02*
X114196000Y-55795000D01*
X114196000Y-50885000D02*
X114196000Y-52300000D01*
X114156000Y-54380000D02*
X114156000Y-55808000D01*
X114156000Y-50872000D02*
X114156000Y-52300000D01*
X114116000Y-54380000D02*
X114116000Y-55820000D01*
X114116000Y-50860000D02*
X114116000Y-52300000D01*
X114075000Y-54380000D02*
X114075000Y-55831000D01*
X114075000Y-50849000D02*
X114075000Y-52300000D01*
X114035000Y-54380000D02*
X114035000Y-55841000D01*
X114035000Y-50839000D02*
X114035000Y-52300000D01*
X113995000Y-54380000D02*
X113995000Y-55851000D01*
X113995000Y-50829000D02*
X113995000Y-52300000D01*
X113955000Y-54380000D02*
X113955000Y-55860000D01*
X113955000Y-50820000D02*
X113955000Y-52300000D01*
X113915000Y-54380000D02*
X113915000Y-55868000D01*
X113915000Y-50812000D02*
X113915000Y-52300000D01*
X113875000Y-54380000D02*
X113875000Y-55876000D01*
X113875000Y-50804000D02*
X113875000Y-52300000D01*
X113835000Y-54380000D02*
X113835000Y-55883000D01*
X113835000Y-50797000D02*
X113835000Y-52300000D01*
X113795000Y-54380000D02*
X113795000Y-55890000D01*
X113795000Y-50790000D02*
X113795000Y-52300000D01*
X113755000Y-54380000D02*
X113755000Y-55896000D01*
X113755000Y-50784000D02*
X113755000Y-52300000D01*
X113715000Y-54380000D02*
X113715000Y-55901000D01*
X113715000Y-50779000D02*
X113715000Y-52300000D01*
X113675000Y-54380000D02*
X113675000Y-55905000D01*
X113675000Y-50775000D02*
X113675000Y-52300000D01*
X113635000Y-54380000D02*
X113635000Y-55909000D01*
X113635000Y-50771000D02*
X113635000Y-52300000D01*
X113595000Y-54380000D02*
X113595000Y-55913000D01*
X113595000Y-50767000D02*
X113595000Y-52300000D01*
X113555000Y-54380000D02*
X113555000Y-55916000D01*
X113555000Y-50764000D02*
X113555000Y-52300000D01*
X113515000Y-54380000D02*
X113515000Y-55918000D01*
X113515000Y-50762000D02*
X113515000Y-52300000D01*
X113475000Y-54380000D02*
X113475000Y-55919000D01*
X113475000Y-50761000D02*
X113475000Y-52300000D01*
X113435000Y-50760000D02*
X113435000Y-52300000D01*
X113435000Y-54380000D02*
X113435000Y-55920000D01*
X113395000Y-50760000D02*
X113395000Y-52300000D01*
X113395000Y-54380000D02*
X113395000Y-55920000D01*
X116015000Y-53340000D02*
G75*
G03*
X116015000Y-53340000I-2620000J0D01*
G01*
%TO.C,C2*%
X117825225Y-51615000D02*
X117825225Y-52115000D01*
X117575225Y-51865000D02*
X118075225Y-51865000D01*
X122981000Y-53056000D02*
X122981000Y-53624000D01*
X122941000Y-52822000D02*
X122941000Y-53858000D01*
X122901000Y-52663000D02*
X122901000Y-54017000D01*
X122861000Y-52535000D02*
X122861000Y-54145000D01*
X122821000Y-52425000D02*
X122821000Y-54255000D01*
X122781000Y-52329000D02*
X122781000Y-54351000D01*
X122741000Y-52242000D02*
X122741000Y-54438000D01*
X122701000Y-52162000D02*
X122701000Y-54518000D01*
X122661000Y-52089000D02*
X122661000Y-54591000D01*
X122621000Y-52021000D02*
X122621000Y-54659000D01*
X122581000Y-51957000D02*
X122581000Y-54723000D01*
X122541000Y-51897000D02*
X122541000Y-54783000D01*
X122501000Y-51840000D02*
X122501000Y-54840000D01*
X122461000Y-51786000D02*
X122461000Y-54894000D01*
X122421000Y-51735000D02*
X122421000Y-54945000D01*
X122381000Y-54380000D02*
X122381000Y-54993000D01*
X122381000Y-51687000D02*
X122381000Y-52300000D01*
X122341000Y-54380000D02*
X122341000Y-55039000D01*
X122341000Y-51641000D02*
X122341000Y-52300000D01*
X122301000Y-54380000D02*
X122301000Y-55083000D01*
X122301000Y-51597000D02*
X122301000Y-52300000D01*
X122261000Y-54380000D02*
X122261000Y-55125000D01*
X122261000Y-51555000D02*
X122261000Y-52300000D01*
X122221000Y-54380000D02*
X122221000Y-55166000D01*
X122221000Y-51514000D02*
X122221000Y-52300000D01*
X122181000Y-54380000D02*
X122181000Y-55204000D01*
X122181000Y-51476000D02*
X122181000Y-52300000D01*
X122141000Y-54380000D02*
X122141000Y-55241000D01*
X122141000Y-51439000D02*
X122141000Y-52300000D01*
X122101000Y-54380000D02*
X122101000Y-55277000D01*
X122101000Y-51403000D02*
X122101000Y-52300000D01*
X122061000Y-54380000D02*
X122061000Y-55311000D01*
X122061000Y-51369000D02*
X122061000Y-52300000D01*
X122021000Y-54380000D02*
X122021000Y-55344000D01*
X122021000Y-51336000D02*
X122021000Y-52300000D01*
X121981000Y-54380000D02*
X121981000Y-55375000D01*
X121981000Y-51305000D02*
X121981000Y-52300000D01*
X121941000Y-54380000D02*
X121941000Y-55405000D01*
X121941000Y-51275000D02*
X121941000Y-52300000D01*
X121901000Y-54380000D02*
X121901000Y-55435000D01*
X121901000Y-51245000D02*
X121901000Y-52300000D01*
X121861000Y-54380000D02*
X121861000Y-55462000D01*
X121861000Y-51218000D02*
X121861000Y-52300000D01*
X121821000Y-54380000D02*
X121821000Y-55489000D01*
X121821000Y-51191000D02*
X121821000Y-52300000D01*
X121781000Y-54380000D02*
X121781000Y-55515000D01*
X121781000Y-51165000D02*
X121781000Y-52300000D01*
X121741000Y-54380000D02*
X121741000Y-55540000D01*
X121741000Y-51140000D02*
X121741000Y-52300000D01*
X121701000Y-54380000D02*
X121701000Y-55564000D01*
X121701000Y-51116000D02*
X121701000Y-52300000D01*
X121661000Y-54380000D02*
X121661000Y-55587000D01*
X121661000Y-51093000D02*
X121661000Y-52300000D01*
X121621000Y-54380000D02*
X121621000Y-55608000D01*
X121621000Y-51072000D02*
X121621000Y-52300000D01*
X121581000Y-54380000D02*
X121581000Y-55630000D01*
X121581000Y-51050000D02*
X121581000Y-52300000D01*
X121541000Y-54380000D02*
X121541000Y-55650000D01*
X121541000Y-51030000D02*
X121541000Y-52300000D01*
X121501000Y-54380000D02*
X121501000Y-55669000D01*
X121501000Y-51011000D02*
X121501000Y-52300000D01*
X121461000Y-54380000D02*
X121461000Y-55688000D01*
X121461000Y-50992000D02*
X121461000Y-52300000D01*
X121421000Y-54380000D02*
X121421000Y-55705000D01*
X121421000Y-50975000D02*
X121421000Y-52300000D01*
X121381000Y-54380000D02*
X121381000Y-55722000D01*
X121381000Y-50958000D02*
X121381000Y-52300000D01*
X121341000Y-54380000D02*
X121341000Y-55738000D01*
X121341000Y-50942000D02*
X121341000Y-52300000D01*
X121301000Y-54380000D02*
X121301000Y-55754000D01*
X121301000Y-50926000D02*
X121301000Y-52300000D01*
X121261000Y-54380000D02*
X121261000Y-55768000D01*
X121261000Y-50912000D02*
X121261000Y-52300000D01*
X121221000Y-54380000D02*
X121221000Y-55782000D01*
X121221000Y-50898000D02*
X121221000Y-52300000D01*
X121181000Y-54380000D02*
X121181000Y-55795000D01*
X121181000Y-50885000D02*
X121181000Y-52300000D01*
X121141000Y-54380000D02*
X121141000Y-55808000D01*
X121141000Y-50872000D02*
X121141000Y-52300000D01*
X121101000Y-54380000D02*
X121101000Y-55820000D01*
X121101000Y-50860000D02*
X121101000Y-52300000D01*
X121060000Y-54380000D02*
X121060000Y-55831000D01*
X121060000Y-50849000D02*
X121060000Y-52300000D01*
X121020000Y-54380000D02*
X121020000Y-55841000D01*
X121020000Y-50839000D02*
X121020000Y-52300000D01*
X120980000Y-54380000D02*
X120980000Y-55851000D01*
X120980000Y-50829000D02*
X120980000Y-52300000D01*
X120940000Y-54380000D02*
X120940000Y-55860000D01*
X120940000Y-50820000D02*
X120940000Y-52300000D01*
X120900000Y-54380000D02*
X120900000Y-55868000D01*
X120900000Y-50812000D02*
X120900000Y-52300000D01*
X120860000Y-54380000D02*
X120860000Y-55876000D01*
X120860000Y-50804000D02*
X120860000Y-52300000D01*
X120820000Y-54380000D02*
X120820000Y-55883000D01*
X120820000Y-50797000D02*
X120820000Y-52300000D01*
X120780000Y-54380000D02*
X120780000Y-55890000D01*
X120780000Y-50790000D02*
X120780000Y-52300000D01*
X120740000Y-54380000D02*
X120740000Y-55896000D01*
X120740000Y-50784000D02*
X120740000Y-52300000D01*
X120700000Y-54380000D02*
X120700000Y-55901000D01*
X120700000Y-50779000D02*
X120700000Y-52300000D01*
X120660000Y-54380000D02*
X120660000Y-55905000D01*
X120660000Y-50775000D02*
X120660000Y-52300000D01*
X120620000Y-54380000D02*
X120620000Y-55909000D01*
X120620000Y-50771000D02*
X120620000Y-52300000D01*
X120580000Y-54380000D02*
X120580000Y-55913000D01*
X120580000Y-50767000D02*
X120580000Y-52300000D01*
X120540000Y-54380000D02*
X120540000Y-55916000D01*
X120540000Y-50764000D02*
X120540000Y-52300000D01*
X120500000Y-54380000D02*
X120500000Y-55918000D01*
X120500000Y-50762000D02*
X120500000Y-52300000D01*
X120460000Y-54380000D02*
X120460000Y-55919000D01*
X120460000Y-50761000D02*
X120460000Y-52300000D01*
X120420000Y-50760000D02*
X120420000Y-52300000D01*
X120420000Y-54380000D02*
X120420000Y-55920000D01*
X120380000Y-50760000D02*
X120380000Y-52300000D01*
X120380000Y-54380000D02*
X120380000Y-55920000D01*
X123000000Y-53340000D02*
G75*
G03*
X123000000Y-53340000I-2620000J0D01*
G01*
%TO.C,RV1*%
X151255000Y-116285000D02*
X151255000Y-98285000D01*
X151255000Y-98285000D02*
X142215000Y-98285000D01*
X151255000Y-116285000D02*
X142215000Y-116285000D01*
X142215000Y-116285000D02*
X142215000Y-98285000D01*
%TO.C,U1*%
X132985000Y-78680000D02*
X131735000Y-78680000D01*
X131735000Y-78680000D02*
X131735000Y-88960000D01*
X131735000Y-88960000D02*
X136235000Y-88960000D01*
X136235000Y-88960000D02*
X136235000Y-78680000D01*
X136235000Y-78680000D02*
X134985000Y-78680000D01*
X128735000Y-78620000D02*
X128735000Y-89020000D01*
X128735000Y-89020000D02*
X139235000Y-89020000D01*
X139235000Y-89020000D02*
X139235000Y-78620000D01*
X139235000Y-78620000D02*
X128735000Y-78620000D01*
X134985000Y-78680000D02*
G75*
G02*
X132985000Y-78680000I-1000000J0D01*
G01*
%TO.C,U2*%
X132985000Y-95190000D02*
X131735000Y-95190000D01*
X131735000Y-95190000D02*
X131735000Y-115630000D01*
X131735000Y-115630000D02*
X136235000Y-115630000D01*
X136235000Y-115630000D02*
X136235000Y-95190000D01*
X136235000Y-95190000D02*
X134985000Y-95190000D01*
X128735000Y-95130000D02*
X128735000Y-115690000D01*
X128735000Y-115690000D02*
X139235000Y-115690000D01*
X139235000Y-115690000D02*
X139235000Y-95130000D01*
X139235000Y-95130000D02*
X128735000Y-95130000D01*
X134985000Y-95190000D02*
G75*
G02*
X132985000Y-95190000I-1000000J0D01*
G01*
%TO.C,RN1*%
X114430000Y-79205000D02*
X111630000Y-79205000D01*
X111630000Y-79205000D02*
X111630000Y-102405000D01*
X111630000Y-102405000D02*
X114430000Y-102405000D01*
X114430000Y-102405000D02*
X114430000Y-79205000D01*
X114430000Y-81915000D02*
X111630000Y-81915000D01*
%TO.C,D9*%
X123785000Y-113030000D02*
G75*
G03*
X123785000Y-113030000I-2500000J0D01*
G01*
X119740000Y-115590000D02*
X122830000Y-115590000D01*
X121284538Y-110040000D02*
G75*
G02*
X122829830Y-115590000I462J-2990000D01*
G01*
X121285462Y-110040000D02*
G75*
G03*
X119740170Y-115590000I-462J-2990000D01*
G01*
%TO.C,D8*%
X123785000Y-106045000D02*
G75*
G03*
X123785000Y-106045000I-2500000J0D01*
G01*
X119740000Y-108605000D02*
X122830000Y-108605000D01*
X121284538Y-103055000D02*
G75*
G02*
X122829830Y-108605000I462J-2990000D01*
G01*
X121285462Y-103055000D02*
G75*
G03*
X119740170Y-108605000I-462J-2990000D01*
G01*
%TO.C,D7*%
X123785000Y-99060000D02*
G75*
G03*
X123785000Y-99060000I-2500000J0D01*
G01*
X119740000Y-101620000D02*
X122830000Y-101620000D01*
X121284538Y-96070000D02*
G75*
G02*
X122829830Y-101620000I462J-2990000D01*
G01*
X121285462Y-96070000D02*
G75*
G03*
X119740170Y-101620000I-462J-2990000D01*
G01*
%TO.C,D6*%
X123785000Y-92075000D02*
G75*
G03*
X123785000Y-92075000I-2500000J0D01*
G01*
X119740000Y-94635000D02*
X122830000Y-94635000D01*
X121284538Y-89085000D02*
G75*
G02*
X122829830Y-94635000I462J-2990000D01*
G01*
X121285462Y-89085000D02*
G75*
G03*
X119740170Y-94635000I-462J-2990000D01*
G01*
%TO.C,D5*%
X123785000Y-85090000D02*
G75*
G03*
X123785000Y-85090000I-2500000J0D01*
G01*
X119740000Y-87650000D02*
X122830000Y-87650000D01*
X121284538Y-82100000D02*
G75*
G02*
X122829830Y-87650000I462J-2990000D01*
G01*
X121285462Y-82100000D02*
G75*
G03*
X119740170Y-87650000I-462J-2990000D01*
G01*
%TO.C,D4*%
X123785000Y-78105000D02*
G75*
G03*
X123785000Y-78105000I-2500000J0D01*
G01*
X119740000Y-80665000D02*
X122830000Y-80665000D01*
X121284538Y-75115000D02*
G75*
G02*
X122829830Y-80665000I462J-2990000D01*
G01*
X121285462Y-75115000D02*
G75*
G03*
X119740170Y-80665000I-462J-2990000D01*
G01*
%TO.C,D3*%
X123785000Y-71120000D02*
G75*
G03*
X123785000Y-71120000I-2500000J0D01*
G01*
X119740000Y-73680000D02*
X122830000Y-73680000D01*
X121284538Y-68130000D02*
G75*
G02*
X122829830Y-73680000I462J-2990000D01*
G01*
X121285462Y-68130000D02*
G75*
G03*
X119740170Y-73680000I-462J-2990000D01*
G01*
%TO.C,D2*%
X123785000Y-64135000D02*
G75*
G03*
X123785000Y-64135000I-2500000J0D01*
G01*
X119740000Y-66695000D02*
X122830000Y-66695000D01*
X121284538Y-61145000D02*
G75*
G02*
X122829830Y-66695000I462J-2990000D01*
G01*
X121285462Y-61145000D02*
G75*
G03*
X119740170Y-66695000I-462J-2990000D01*
G01*
%TO.C,C1*%
X136725000Y-69620000D02*
X136725000Y-65080000D01*
X138865000Y-69620000D02*
X138865000Y-65080000D01*
X136725000Y-69620000D02*
X136740000Y-69620000D01*
X138850000Y-69620000D02*
X138865000Y-69620000D01*
X136725000Y-65080000D02*
X136740000Y-65080000D01*
X138850000Y-65080000D02*
X138865000Y-65080000D01*
%TO.C,Q1*%
X149805000Y-86890000D02*
X149805000Y-83290000D01*
X149793478Y-86928478D02*
G75*
G02*
X145355000Y-85090000I-1838478J1838478D01*
G01*
X149793478Y-83251522D02*
G75*
G03*
X145355000Y-85090000I-1838478J-1838478D01*
G01*
%TO.C,BT1*%
D12*
X145858571Y-126515714D02*
X145906190Y-126372857D01*
X145953809Y-126325238D01*
X146049047Y-126277619D01*
X146191904Y-126277619D01*
X146287142Y-126325238D01*
X146334761Y-126372857D01*
X146382380Y-126468095D01*
X146382380Y-126849047D01*
X145382380Y-126849047D01*
X145382380Y-126515714D01*
X145430000Y-126420476D01*
X145477619Y-126372857D01*
X145572857Y-126325238D01*
X145668095Y-126325238D01*
X145763333Y-126372857D01*
X145810952Y-126420476D01*
X145858571Y-126515714D01*
X145858571Y-126849047D01*
X145382380Y-125991904D02*
X145382380Y-125420476D01*
X146382380Y-125706190D02*
X145382380Y-125706190D01*
X146382380Y-124563333D02*
X146382380Y-125134761D01*
X146382380Y-124849047D02*
X145382380Y-124849047D01*
X145525238Y-124944285D01*
X145620476Y-125039523D01*
X145668095Y-125134761D01*
X138501428Y-130427500D02*
X138501428Y-129665595D01*
X138882380Y-130046547D02*
X138120476Y-130046547D01*
X125621428Y-130427500D02*
X125621428Y-129665595D01*
%TO.C,U3*%
X116078095Y-24592380D02*
X116078095Y-25401904D01*
X116125714Y-25497142D01*
X116173333Y-25544761D01*
X116268571Y-25592380D01*
X116459047Y-25592380D01*
X116554285Y-25544761D01*
X116601904Y-25497142D01*
X116649523Y-25401904D01*
X116649523Y-24592380D01*
X117030476Y-24592380D02*
X117649523Y-24592380D01*
X117316190Y-24973333D01*
X117459047Y-24973333D01*
X117554285Y-25020952D01*
X117601904Y-25068571D01*
X117649523Y-25163809D01*
X117649523Y-25401904D01*
X117601904Y-25497142D01*
X117554285Y-25544761D01*
X117459047Y-25592380D01*
X117173333Y-25592380D01*
X117078095Y-25544761D01*
X117030476Y-25497142D01*
%TO.C,D1*%
X133732380Y-65508095D02*
X132732380Y-65508095D01*
X132732380Y-65270000D01*
X132780000Y-65127142D01*
X132875238Y-65031904D01*
X132970476Y-64984285D01*
X133160952Y-64936666D01*
X133303809Y-64936666D01*
X133494285Y-64984285D01*
X133589523Y-65031904D01*
X133684761Y-65127142D01*
X133732380Y-65270000D01*
X133732380Y-65508095D01*
X133732380Y-63984285D02*
X133732380Y-64555714D01*
X133732380Y-64270000D02*
X132732380Y-64270000D01*
X132875238Y-64365238D01*
X132970476Y-64460476D01*
X133018095Y-64555714D01*
X133362380Y-59951904D02*
X132362380Y-59951904D01*
X133362380Y-59380476D02*
X132790952Y-59809047D01*
X132362380Y-59380476D02*
X132933809Y-59951904D01*
%TO.C,M1*%
X143327380Y-68119523D02*
X142327380Y-68119523D01*
X143041666Y-67786190D01*
X142327380Y-67452857D01*
X143327380Y-67452857D01*
X143327380Y-66452857D02*
X143327380Y-67024285D01*
X143327380Y-66738571D02*
X142327380Y-66738571D01*
X142470238Y-66833809D01*
X142565476Y-66929047D01*
X142613095Y-67024285D01*
%TO.C,C3*%
X113228333Y-49947142D02*
X113180714Y-49994761D01*
X113037857Y-50042380D01*
X112942619Y-50042380D01*
X112799761Y-49994761D01*
X112704523Y-49899523D01*
X112656904Y-49804285D01*
X112609285Y-49613809D01*
X112609285Y-49470952D01*
X112656904Y-49280476D01*
X112704523Y-49185238D01*
X112799761Y-49090000D01*
X112942619Y-49042380D01*
X113037857Y-49042380D01*
X113180714Y-49090000D01*
X113228333Y-49137619D01*
X113561666Y-49042380D02*
X114180714Y-49042380D01*
X113847380Y-49423333D01*
X113990238Y-49423333D01*
X114085476Y-49470952D01*
X114133095Y-49518571D01*
X114180714Y-49613809D01*
X114180714Y-49851904D01*
X114133095Y-49947142D01*
X114085476Y-49994761D01*
X113990238Y-50042380D01*
X113704523Y-50042380D01*
X113609285Y-49994761D01*
X113561666Y-49947142D01*
%TO.C,C2*%
X120213333Y-49947142D02*
X120165714Y-49994761D01*
X120022857Y-50042380D01*
X119927619Y-50042380D01*
X119784761Y-49994761D01*
X119689523Y-49899523D01*
X119641904Y-49804285D01*
X119594285Y-49613809D01*
X119594285Y-49470952D01*
X119641904Y-49280476D01*
X119689523Y-49185238D01*
X119784761Y-49090000D01*
X119927619Y-49042380D01*
X120022857Y-49042380D01*
X120165714Y-49090000D01*
X120213333Y-49137619D01*
X120594285Y-49137619D02*
X120641904Y-49090000D01*
X120737142Y-49042380D01*
X120975238Y-49042380D01*
X121070476Y-49090000D01*
X121118095Y-49137619D01*
X121165714Y-49232857D01*
X121165714Y-49328095D01*
X121118095Y-49470952D01*
X120546666Y-50042380D01*
X121165714Y-50042380D01*
%TO.C,RV1*%
X141422380Y-106720238D02*
X140946190Y-107053571D01*
X141422380Y-107291666D02*
X140422380Y-107291666D01*
X140422380Y-106910714D01*
X140470000Y-106815476D01*
X140517619Y-106767857D01*
X140612857Y-106720238D01*
X140755714Y-106720238D01*
X140850952Y-106767857D01*
X140898571Y-106815476D01*
X140946190Y-106910714D01*
X140946190Y-107291666D01*
X140422380Y-106434523D02*
X141422380Y-106101190D01*
X140422380Y-105767857D01*
X141422380Y-104910714D02*
X141422380Y-105482142D01*
X141422380Y-105196428D02*
X140422380Y-105196428D01*
X140565238Y-105291666D01*
X140660476Y-105386904D01*
X140708095Y-105482142D01*
X143597380Y-111561666D02*
X144597380Y-111323571D01*
X143883095Y-111133095D01*
X144597380Y-110942619D01*
X143597380Y-110704523D01*
X144597380Y-110323571D02*
X143597380Y-110323571D01*
X144073571Y-110323571D02*
X144073571Y-109752142D01*
X144597380Y-109752142D02*
X143597380Y-109752142D01*
X144597380Y-108752142D02*
X144597380Y-109323571D01*
X144597380Y-109037857D02*
X143597380Y-109037857D01*
X143740238Y-109133095D01*
X143835476Y-109228333D01*
X143883095Y-109323571D01*
X143930714Y-107895000D02*
X144597380Y-107895000D01*
X143549761Y-108133095D02*
X144264047Y-108371190D01*
X144264047Y-107752142D01*
X144025952Y-107228333D02*
X143978333Y-107323571D01*
X143930714Y-107371190D01*
X143835476Y-107418809D01*
X143787857Y-107418809D01*
X143692619Y-107371190D01*
X143645000Y-107323571D01*
X143597380Y-107228333D01*
X143597380Y-107037857D01*
X143645000Y-106942619D01*
X143692619Y-106895000D01*
X143787857Y-106847380D01*
X143835476Y-106847380D01*
X143930714Y-106895000D01*
X143978333Y-106942619D01*
X144025952Y-107037857D01*
X144025952Y-107228333D01*
X144073571Y-107323571D01*
X144121190Y-107371190D01*
X144216428Y-107418809D01*
X144406904Y-107418809D01*
X144502142Y-107371190D01*
X144549761Y-107323571D01*
X144597380Y-107228333D01*
X144597380Y-107037857D01*
X144549761Y-106942619D01*
X144502142Y-106895000D01*
X144406904Y-106847380D01*
X144216428Y-106847380D01*
X144121190Y-106895000D01*
X144073571Y-106942619D01*
X144025952Y-107037857D01*
X144597380Y-105656904D02*
X143597380Y-105656904D01*
X143597380Y-105275952D01*
X143645000Y-105180714D01*
X143692619Y-105133095D01*
X143787857Y-105085476D01*
X143930714Y-105085476D01*
X144025952Y-105133095D01*
X144073571Y-105180714D01*
X144121190Y-105275952D01*
X144121190Y-105656904D01*
X143597380Y-104466428D02*
X143597380Y-104275952D01*
X143645000Y-104180714D01*
X143740238Y-104085476D01*
X143930714Y-104037857D01*
X144264047Y-104037857D01*
X144454523Y-104085476D01*
X144549761Y-104180714D01*
X144597380Y-104275952D01*
X144597380Y-104466428D01*
X144549761Y-104561666D01*
X144454523Y-104656904D01*
X144264047Y-104704523D01*
X143930714Y-104704523D01*
X143740238Y-104656904D01*
X143645000Y-104561666D01*
X143597380Y-104466428D01*
X143597380Y-103752142D02*
X143597380Y-103180714D01*
X144597380Y-103466428D02*
X143597380Y-103466428D01*
%TO.C,U1*%
X133223095Y-77132380D02*
X133223095Y-77941904D01*
X133270714Y-78037142D01*
X133318333Y-78084761D01*
X133413571Y-78132380D01*
X133604047Y-78132380D01*
X133699285Y-78084761D01*
X133746904Y-78037142D01*
X133794523Y-77941904D01*
X133794523Y-77132380D01*
X134794523Y-78132380D02*
X134223095Y-78132380D01*
X134508809Y-78132380D02*
X134508809Y-77132380D01*
X134413571Y-77275238D01*
X134318333Y-77370476D01*
X134223095Y-77418095D01*
%TO.C,U2*%
X133223095Y-93642380D02*
X133223095Y-94451904D01*
X133270714Y-94547142D01*
X133318333Y-94594761D01*
X133413571Y-94642380D01*
X133604047Y-94642380D01*
X133699285Y-94594761D01*
X133746904Y-94547142D01*
X133794523Y-94451904D01*
X133794523Y-93642380D01*
X134223095Y-93737619D02*
X134270714Y-93690000D01*
X134365952Y-93642380D01*
X134604047Y-93642380D01*
X134699285Y-93690000D01*
X134746904Y-93737619D01*
X134794523Y-93832857D01*
X134794523Y-93928095D01*
X134746904Y-94070952D01*
X134175476Y-94642380D01*
X134794523Y-94642380D01*
%TO.C,RN1*%
X115882380Y-92765476D02*
X115406190Y-93098809D01*
X115882380Y-93336904D02*
X114882380Y-93336904D01*
X114882380Y-92955952D01*
X114930000Y-92860714D01*
X114977619Y-92813095D01*
X115072857Y-92765476D01*
X115215714Y-92765476D01*
X115310952Y-92813095D01*
X115358571Y-92860714D01*
X115406190Y-92955952D01*
X115406190Y-93336904D01*
X115882380Y-92336904D02*
X114882380Y-92336904D01*
X115882380Y-91765476D01*
X114882380Y-91765476D01*
X115882380Y-90765476D02*
X115882380Y-91336904D01*
X115882380Y-91051190D02*
X114882380Y-91051190D01*
X115025238Y-91146428D01*
X115120476Y-91241666D01*
X115168095Y-91336904D01*
%TO.C,D9*%
X117777380Y-113768095D02*
X116777380Y-113768095D01*
X116777380Y-113530000D01*
X116825000Y-113387142D01*
X116920238Y-113291904D01*
X117015476Y-113244285D01*
X117205952Y-113196666D01*
X117348809Y-113196666D01*
X117539285Y-113244285D01*
X117634523Y-113291904D01*
X117729761Y-113387142D01*
X117777380Y-113530000D01*
X117777380Y-113768095D01*
X117777380Y-112720476D02*
X117777380Y-112530000D01*
X117729761Y-112434761D01*
X117682142Y-112387142D01*
X117539285Y-112291904D01*
X117348809Y-112244285D01*
X116967857Y-112244285D01*
X116872619Y-112291904D01*
X116825000Y-112339523D01*
X116777380Y-112434761D01*
X116777380Y-112625238D01*
X116825000Y-112720476D01*
X116872619Y-112768095D01*
X116967857Y-112815714D01*
X117205952Y-112815714D01*
X117301190Y-112768095D01*
X117348809Y-112720476D01*
X117396428Y-112625238D01*
X117396428Y-112434761D01*
X117348809Y-112339523D01*
X117301190Y-112291904D01*
X117205952Y-112244285D01*
%TO.C,D8*%
X117777380Y-106783095D02*
X116777380Y-106783095D01*
X116777380Y-106545000D01*
X116825000Y-106402142D01*
X116920238Y-106306904D01*
X117015476Y-106259285D01*
X117205952Y-106211666D01*
X117348809Y-106211666D01*
X117539285Y-106259285D01*
X117634523Y-106306904D01*
X117729761Y-106402142D01*
X117777380Y-106545000D01*
X117777380Y-106783095D01*
X117205952Y-105640238D02*
X117158333Y-105735476D01*
X117110714Y-105783095D01*
X117015476Y-105830714D01*
X116967857Y-105830714D01*
X116872619Y-105783095D01*
X116825000Y-105735476D01*
X116777380Y-105640238D01*
X116777380Y-105449761D01*
X116825000Y-105354523D01*
X116872619Y-105306904D01*
X116967857Y-105259285D01*
X117015476Y-105259285D01*
X117110714Y-105306904D01*
X117158333Y-105354523D01*
X117205952Y-105449761D01*
X117205952Y-105640238D01*
X117253571Y-105735476D01*
X117301190Y-105783095D01*
X117396428Y-105830714D01*
X117586904Y-105830714D01*
X117682142Y-105783095D01*
X117729761Y-105735476D01*
X117777380Y-105640238D01*
X117777380Y-105449761D01*
X117729761Y-105354523D01*
X117682142Y-105306904D01*
X117586904Y-105259285D01*
X117396428Y-105259285D01*
X117301190Y-105306904D01*
X117253571Y-105354523D01*
X117205952Y-105449761D01*
%TO.C,D7*%
X117777380Y-99798095D02*
X116777380Y-99798095D01*
X116777380Y-99560000D01*
X116825000Y-99417142D01*
X116920238Y-99321904D01*
X117015476Y-99274285D01*
X117205952Y-99226666D01*
X117348809Y-99226666D01*
X117539285Y-99274285D01*
X117634523Y-99321904D01*
X117729761Y-99417142D01*
X117777380Y-99560000D01*
X117777380Y-99798095D01*
X116777380Y-98893333D02*
X116777380Y-98226666D01*
X117777380Y-98655238D01*
%TO.C,D6*%
X117777380Y-92813095D02*
X116777380Y-92813095D01*
X116777380Y-92575000D01*
X116825000Y-92432142D01*
X116920238Y-92336904D01*
X117015476Y-92289285D01*
X117205952Y-92241666D01*
X117348809Y-92241666D01*
X117539285Y-92289285D01*
X117634523Y-92336904D01*
X117729761Y-92432142D01*
X117777380Y-92575000D01*
X117777380Y-92813095D01*
X116777380Y-91384523D02*
X116777380Y-91575000D01*
X116825000Y-91670238D01*
X116872619Y-91717857D01*
X117015476Y-91813095D01*
X117205952Y-91860714D01*
X117586904Y-91860714D01*
X117682142Y-91813095D01*
X117729761Y-91765476D01*
X117777380Y-91670238D01*
X117777380Y-91479761D01*
X117729761Y-91384523D01*
X117682142Y-91336904D01*
X117586904Y-91289285D01*
X117348809Y-91289285D01*
X117253571Y-91336904D01*
X117205952Y-91384523D01*
X117158333Y-91479761D01*
X117158333Y-91670238D01*
X117205952Y-91765476D01*
X117253571Y-91813095D01*
X117348809Y-91860714D01*
%TO.C,D5*%
X117777380Y-85828095D02*
X116777380Y-85828095D01*
X116777380Y-85590000D01*
X116825000Y-85447142D01*
X116920238Y-85351904D01*
X117015476Y-85304285D01*
X117205952Y-85256666D01*
X117348809Y-85256666D01*
X117539285Y-85304285D01*
X117634523Y-85351904D01*
X117729761Y-85447142D01*
X117777380Y-85590000D01*
X117777380Y-85828095D01*
X116777380Y-84351904D02*
X116777380Y-84828095D01*
X117253571Y-84875714D01*
X117205952Y-84828095D01*
X117158333Y-84732857D01*
X117158333Y-84494761D01*
X117205952Y-84399523D01*
X117253571Y-84351904D01*
X117348809Y-84304285D01*
X117586904Y-84304285D01*
X117682142Y-84351904D01*
X117729761Y-84399523D01*
X117777380Y-84494761D01*
X117777380Y-84732857D01*
X117729761Y-84828095D01*
X117682142Y-84875714D01*
%TO.C,D4*%
X117777380Y-78843095D02*
X116777380Y-78843095D01*
X116777380Y-78605000D01*
X116825000Y-78462142D01*
X116920238Y-78366904D01*
X117015476Y-78319285D01*
X117205952Y-78271666D01*
X117348809Y-78271666D01*
X117539285Y-78319285D01*
X117634523Y-78366904D01*
X117729761Y-78462142D01*
X117777380Y-78605000D01*
X117777380Y-78843095D01*
X117110714Y-77414523D02*
X117777380Y-77414523D01*
X116729761Y-77652619D02*
X117444047Y-77890714D01*
X117444047Y-77271666D01*
%TO.C,D3*%
X117777380Y-71858095D02*
X116777380Y-71858095D01*
X116777380Y-71620000D01*
X116825000Y-71477142D01*
X116920238Y-71381904D01*
X117015476Y-71334285D01*
X117205952Y-71286666D01*
X117348809Y-71286666D01*
X117539285Y-71334285D01*
X117634523Y-71381904D01*
X117729761Y-71477142D01*
X117777380Y-71620000D01*
X117777380Y-71858095D01*
X116777380Y-70953333D02*
X116777380Y-70334285D01*
X117158333Y-70667619D01*
X117158333Y-70524761D01*
X117205952Y-70429523D01*
X117253571Y-70381904D01*
X117348809Y-70334285D01*
X117586904Y-70334285D01*
X117682142Y-70381904D01*
X117729761Y-70429523D01*
X117777380Y-70524761D01*
X117777380Y-70810476D01*
X117729761Y-70905714D01*
X117682142Y-70953333D01*
%TO.C,D2*%
X117777380Y-64873095D02*
X116777380Y-64873095D01*
X116777380Y-64635000D01*
X116825000Y-64492142D01*
X116920238Y-64396904D01*
X117015476Y-64349285D01*
X117205952Y-64301666D01*
X117348809Y-64301666D01*
X117539285Y-64349285D01*
X117634523Y-64396904D01*
X117729761Y-64492142D01*
X117777380Y-64635000D01*
X117777380Y-64873095D01*
X116872619Y-63920714D02*
X116825000Y-63873095D01*
X116777380Y-63777857D01*
X116777380Y-63539761D01*
X116825000Y-63444523D01*
X116872619Y-63396904D01*
X116967857Y-63349285D01*
X117063095Y-63349285D01*
X117205952Y-63396904D01*
X117777380Y-63968333D01*
X117777380Y-63349285D01*
%TO.C,C1*%
X135952142Y-67516666D02*
X135999761Y-67564285D01*
X136047380Y-67707142D01*
X136047380Y-67802380D01*
X135999761Y-67945238D01*
X135904523Y-68040476D01*
X135809285Y-68088095D01*
X135618809Y-68135714D01*
X135475952Y-68135714D01*
X135285476Y-68088095D01*
X135190238Y-68040476D01*
X135095000Y-67945238D01*
X135047380Y-67802380D01*
X135047380Y-67707142D01*
X135095000Y-67564285D01*
X135142619Y-67516666D01*
X136047380Y-66564285D02*
X136047380Y-67135714D01*
X136047380Y-66850000D02*
X135047380Y-66850000D01*
X135190238Y-66945238D01*
X135285476Y-67040476D01*
X135333095Y-67135714D01*
%TO.C,Q1*%
X144942619Y-85185238D02*
X144895000Y-85280476D01*
X144799761Y-85375714D01*
X144656904Y-85518571D01*
X144609285Y-85613809D01*
X144609285Y-85709047D01*
X144847380Y-85661428D02*
X144799761Y-85756666D01*
X144704523Y-85851904D01*
X144514047Y-85899523D01*
X144180714Y-85899523D01*
X143990238Y-85851904D01*
X143895000Y-85756666D01*
X143847380Y-85661428D01*
X143847380Y-85470952D01*
X143895000Y-85375714D01*
X143990238Y-85280476D01*
X144180714Y-85232857D01*
X144514047Y-85232857D01*
X144704523Y-85280476D01*
X144799761Y-85375714D01*
X144847380Y-85470952D01*
X144847380Y-85661428D01*
X144847380Y-84280476D02*
X144847380Y-84851904D01*
X144847380Y-84566190D02*
X143847380Y-84566190D01*
X143990238Y-84661428D01*
X144085476Y-84756666D01*
X144133095Y-84851904D01*
%TD*%
M02*
